<svg xmlns="http://www.w3.org/2000/svg" width="100%" height="100%" viewBox="0 0 148 148" fill-rule="evenodd" stroke-linejoin="round" stroke-miterlimit="2" xmlns:v="https://vecta.io/nano"><circle cx="74" cy="74" r="74" fill="#007cf9"/><path d="M128.394 70.169a7.68 7.68 0 0 1 0 7.671l-23.874 41.35a7.67 7.67 0 0 1-6.643 3.836H50.13a7.67 7.67 0 0 1-6.643-3.836L19.613 77.84a7.68 7.68 0 0 1 0-7.671l23.874-41.35a7.67 7.67 0 0 1 6.643-3.836h47.746a7.67 7.67 0 0 1 6.643 3.836l23.874 41.35zm-18.202 5.752a3.83 3.83 0 0 0 0-3.833L93.758 43.624c-.686-1.187-1.951-1.917-3.32-1.917H57.569c-1.369 0-2.635.729-3.32 1.917L37.814 72.088a3.84 3.84 0 0 0 0 3.833l16.435 28.465c.686 1.187 1.951 1.919 3.32 1.919h32.868c1.369 0 2.635-.732 3.32-1.919l16.433-28.465z" fill="#fff"/></svg>